<mxfile host="Electron" modified="2025-01-22T09:07:51.227Z" agent="Mozilla/5.0 (Windows NT 10.0; Win64; x64) AppleWebKit/537.36 (KHTML, like Gecko) draw.io/22.0.0 Chrome/114.0.5735.289 Electron/25.8.3 Safari/537.36" etag="Xoa43JSIrREOcujLawwN" version="22.0.0" type="device">
  <diagram name="Page-1" id="55XrHDB_ZEnkN5RvFyYx">
    <mxGraphModel dx="941" dy="644" grid="1" gridSize="10" guides="1" tooltips="1" connect="1" arrows="1" fold="1" page="1" pageScale="1" pageWidth="827" pageHeight="1169" math="0" shadow="0">
      <root>
        <mxCell id="0" />
        <mxCell id="1" parent="0" />
        <mxCell id="EiFA9kXMVTm0ksS5wZU1-2" value="" style="rounded=0;whiteSpace=wrap;html=1;" vertex="1" parent="1">
          <mxGeometry x="110" y="80" width="560" height="590" as="geometry" />
        </mxCell>
        <mxCell id="EiFA9kXMVTm0ksS5wZU1-3" value="" style="rounded=0;whiteSpace=wrap;html=1;" vertex="1" parent="1">
          <mxGeometry x="180" y="270" width="430" height="310" as="geometry" />
        </mxCell>
        <mxCell id="EiFA9kXMVTm0ksS5wZU1-4" value="" style="rounded=0;whiteSpace=wrap;html=1;" vertex="1" parent="1">
          <mxGeometry x="249" y="360" width="330" height="30" as="geometry" />
        </mxCell>
        <mxCell id="EiFA9kXMVTm0ksS5wZU1-5" value="" style="rounded=0;whiteSpace=wrap;html=1;" vertex="1" parent="1">
          <mxGeometry x="249" y="440" width="330" height="30" as="geometry" />
        </mxCell>
        <mxCell id="EiFA9kXMVTm0ksS5wZU1-6" value="Mail :" style="text;html=1;strokeColor=none;fillColor=none;align=center;verticalAlign=middle;whiteSpace=wrap;rounded=0;" vertex="1" parent="1">
          <mxGeometry x="189" y="360" width="60" height="30" as="geometry" />
        </mxCell>
        <mxCell id="EiFA9kXMVTm0ksS5wZU1-7" value="MDP :" style="text;html=1;strokeColor=none;fillColor=none;align=center;verticalAlign=middle;whiteSpace=wrap;rounded=0;" vertex="1" parent="1">
          <mxGeometry x="189" y="440" width="60" height="30" as="geometry" />
        </mxCell>
        <mxCell id="EiFA9kXMVTm0ksS5wZU1-8" value="Veuillez entrer vos identifiant pour pouvoir vous connecter !" style="text;html=1;strokeColor=none;fillColor=none;align=center;verticalAlign=middle;whiteSpace=wrap;rounded=0;" vertex="1" parent="1">
          <mxGeometry x="270" y="280" width="260" height="30" as="geometry" />
        </mxCell>
        <mxCell id="EiFA9kXMVTm0ksS5wZU1-9" value="Connexion" style="text;html=1;strokeColor=default;fillColor=none;align=center;verticalAlign=middle;whiteSpace=wrap;rounded=0;perimeterSpacing=0;" vertex="1" parent="1">
          <mxGeometry x="370" y="530" width="60" height="30" as="geometry" />
        </mxCell>
      </root>
    </mxGraphModel>
  </diagram>
</mxfile>
